<svg viewBox="681.6667 238.7074 380 252.672" width="5000" height="3324.6315789473683" xmlns="http://www.w3.org/2000/svg" xmlns:xlink="http://www.w3.org/1999/xlink" preserveAspectRatio="none"><defs></defs><style>.aD6z1nYkhcolor {fill:#000000;fill-opacity:1;}.aD6z1nYkhstrokeColor-str {stroke:#3F3F3F;stroke-opacity:1;}</style><g opacity="1" transform="rotate(0 681.6667 420.8421)">
<svg width="380" height="70.5373" x="681.6667" y="420.8421" version="1.1" preserveAspectRatio="none" viewBox="2.9492 -28.0078 152.9883 28.3984">
  <g transform="matrix(1 0 0 1 0 0)" class="aD6z1nYkhcolor"><path id="id-D6z1nYkh5" d="M28.67-5.08L28.67 0L5.51 0Q4.96 0 4.49-0.20Q4.02-0.39 3.68-0.73Q3.34-1.07 3.14-1.54Q2.95-2.01 2.95-2.56L2.95-2.56L2.95-28.01L8.03-28.01L8.03-5.08L28.67-5.08Z M60.35-7.13L60.35-6.15Q60.35-5.21 60.03-4.14Q59.71-3.07 58.97-2.15Q58.24-1.23 57.07-0.62Q55.90 0 54.20 0L54.20 0L34.92 0Q34.38 0 33.91-0.20Q33.44-0.39 33.10-0.73Q32.75-1.07 32.56-1.54Q32.36-2.01 32.36-2.56L32.36-2.56L32.36-25.45Q32.36-25.98 32.56-26.45Q32.75-26.91 33.10-27.27Q33.44-27.62 33.91-27.81Q34.38-28.01 34.92-28.01L34.92-28.01L51.91-28.01Q52.85-28.01 53.93-27.68Q55-27.34 55.93-26.61Q56.86-25.88 57.47-24.71Q58.09-23.54 58.09-21.84L58.09-21.84L58.09-20.88Q58.09-19.53 57.64-17.98Q57.19-16.43 56.19-15.04L56.19-15.04Q57.05-14.51 57.80-13.77Q58.55-13.03 59.12-12.05Q59.69-11.07 60.02-9.84Q60.35-8.61 60.35-7.13L60.35-7.13ZM55.27-6.19L55.27-7.13Q55.27-8.13 54.96-8.92Q54.65-9.71 54.08-10.27Q53.52-10.84 52.71-11.14Q51.91-11.45 50.92-11.45L50.92-11.45L39.47-11.45L39.47-16.56L48.63-16.56Q49.63-16.56 50.43-16.87Q51.23-17.17 51.80-17.73Q52.36-18.30 52.67-19.09Q52.97-19.88 52.97-20.88L52.97-20.88L52.97-21.84Q52.97-22.93 51.91-22.93L51.91-22.93L37.44-22.93L37.44-5.08L54.20-5.08Q54.34-5.08 54.53-5.10Q54.73-5.12 54.88-5.21Q55.04-5.31 55.16-5.55Q55.27-5.78 55.27-6.19L55.27-6.19Z M92.71-16.29L92.71-11.72Q92.71-9.16 91.83-7.01Q90.94-4.86 89.38-3.31Q87.81-1.76 85.66-0.88Q83.52 0 81.00 0L81.00 0L67.29 0Q66.74 0 66.27-0.20Q65.80-0.39 65.46-0.73Q65.12-1.07 64.92-1.54Q64.73-2.01 64.73-2.56L64.73-2.56L64.73-25.45Q64.73-25.98 64.92-26.45Q65.12-26.91 65.46-27.27Q65.80-27.62 66.27-27.81Q66.74-28.01 67.29-28.01L67.29-28.01L81.00-28.01Q83.52-28.01 85.66-27.13Q87.81-26.25 89.38-24.70Q90.94-23.14 91.83-20.99Q92.71-18.83 92.71-16.29L92.71-16.29ZM87.64-11.72L87.64-16.29Q87.64-17.77 87.16-19.00Q86.68-20.23 85.80-21.10Q84.92-21.97 83.70-22.45Q82.48-22.93 81.00-22.93L81.00-22.93L69.80-22.93L69.80-5.08L81.00-5.08Q82.48-5.08 83.70-5.56Q84.92-6.04 85.80-6.90Q86.68-7.77 87.16-8.99Q87.64-10.21 87.64-11.72L87.64-11.72Z M120.72-16.56L120.72-11.45L104.69-11.45L104.69-16.56L120.72-16.56ZM123.01-5.08L123.01 0L104.69 0Q103.63 0 102.38-0.37Q101.13-0.74 100.07-1.59Q99.00-2.44 98.29-3.80Q97.58-5.16 97.58-7.13L97.58-7.13L97.58-25.45Q97.58-25.98 97.77-26.45Q97.97-26.91 98.31-27.27Q98.65-27.62 99.12-27.81Q99.59-28.01 100.14-28.01L100.14-28.01L123.01-28.01L123.01-22.93L102.66-22.93L102.66-7.13Q102.66-6.13 103.18-5.61Q103.71-5.08 104.73-5.08L104.73-5.08L123.01-5.08Z M150.27-28.01L155.94-28.01L142.68-1.00Q142.36-0.37 141.75 0.01Q141.13 0.39 140.39 0.39L140.39 0.39Q139.67 0.39 139.05 0.01Q138.44-0.37 138.11-1.00L138.11-1.00L124.86-28.01L130.55-28.01L140.39-7.83L150.27-28.01Z"/></g>
</svg>
</g><g opacity="1" transform="rotate(0 776.6667 238.7074)">
<svg width="190" height="151.9044" x="776.6667" y="238.7074" version="1.1" preserveAspectRatio="none" viewBox="68.50749969482422 106.0999984741211 374.986083984375 299.8000183105469">
  <g transform="matrix(1 0 0 1 0 0)" style="fill:#000000;fill-opacity:1;"><g><path d="M441.5,378.7l-35.6-71V106.1H106.1v201.6l-35.6,71c-6.2,12.6,2.8,27.2,16.9,27.2h337.3   C438.7,405.9,447.7,391.3,441.5,378.7z M143.6,143.6h224.9v149.9H143.6V143.6z M117.7,368.4l18.7-37.5h239.1l18.7,37.5H117.7z"></path><path d="M274,211.4L250.6,187c-7.3-7.7-19.5-7.7-26.8-0.4l-43.5,43.5l26.6,26.6l30-30.2l23.5,24.5c7.3,7.6,19.3,7.7,26.7,0.3   l43.6-43.5l-26.4-26.6L274,211.4z"></path></g></g>
</svg>
</g></svg>